<?xml version="1.0" standalone="no"?>
<!DOCTYPE svg PUBLIC "-//W3C//DTD SVG 1.1//EN" "http://www.w3.org/Graphics/SVG/1.1/DTD/svg11.dtd" >
<svg xmlns="http://www.w3.org/2000/svg">
<metadata>Generated by IcoMoon</metadata>
<defs>
<font id="icomoon" horiz-adv-x="1024">
<font-face units-per-em="1024" ascent="960" descent="-64" />
<missing-glyph horiz-adv-x="1024" />
<glyph unicode="&#x20;" horiz-adv-x="512" d="" />
<glyph unicode="&#xe900;" glyph-name="arrow-left" d="M274.659 504.887l305.153 305.152-80.441 80.441-442.482-442.482 442.482-442.485 80.441 80.444-305.153 305.152h692.449v113.778h-692.449z" />
<glyph unicode="&#xe901;" glyph-name="arrow-light" d="M749.341 504.887l-305.153 305.152 80.441 80.441 442.479-442.482-442.479-442.485-80.441 80.444 305.153 305.152h-692.452v113.778h692.452z" />
<glyph unicode="&#xe902;" glyph-name="challenges" d="M633.905 911.238c28.799 0.010 57.134-7.269 82.369-21.159 25.229-13.89 46.533-33.939 61.928-58.281s24.381-52.183 26.117-80.931c1.741-28.749-3.828-57.469-16.179-83.487l162.718 0.049c12.932 0 25.337-5.138 34.48-14.282s14.282-21.547 14.282-34.48v-195.048c0-12.932-5.14-25.337-14.282-34.48s-21.548-14.282-34.48-14.282h-48.762v-390.095c0-12.932-5.14-25.337-14.282-34.48s-21.548-14.282-34.48-14.282h-682.667c-12.933 0-25.335 5.14-34.48 14.282s-14.282 21.548-14.282 34.48v390.095h-48.762c-12.932 0-25.335 5.14-34.48 14.282s-14.282 21.548-14.282 34.48v195.048c0 12.932 5.137 25.335 14.282 34.48s21.547 14.282 34.48 14.282l162.718-0.049c-17.371 36.49-21.229 77.96-10.889 117.029s34.211 73.199 67.36 96.316c33.149 23.118 73.426 33.722 113.661 29.925s77.817-21.749 106.056-50.66c15.848 16.261 34.801 29.175 55.73 37.978 20.933 8.803 43.418 13.316 66.126 13.271zM804.571 374.857h-585.143v-341.333h585.143v341.333zM902.095 569.905h-780.19v-97.524h780.19v97.524zM390.095 813.714c-18.784-0.009-36.844-7.245-50.439-20.207s-21.681-30.659-22.583-49.421c-0.903-18.762 5.447-37.153 17.735-51.36s29.569-23.143 48.266-24.956l7.022-0.341h73.143v73.143c-0.001 18.182-6.774 35.713-18.999 49.172s-29.024 21.883-47.123 23.629l-7.022 0.341zM633.905 813.714l-7.022-0.341c-16.901-1.619-32.714-9.069-44.724-21.071s-19.471-27.808-21.104-44.709l-0.293-7.022v-73.143h73.143l7.022 0.341c18.091 1.754 34.884 10.181 47.099 23.64 12.22 13.459 18.988 30.984 18.988 49.161s-6.768 35.702-18.988 49.161c-12.215 13.459-29.008 21.887-47.099 23.641l-7.022 0.341z" />
<glyph unicode="&#xe903;" glyph-name="development" d="M107.789 933.053v-862.316h862.316v-107.789h-970.105v970.105h107.789zM932.002 755.577l76.207-76.207-307.577-307.577-161.684 161.63-231.37-231.316-76.207 76.207 307.577 307.577 161.684-161.63 231.37 231.316z" />
<glyph unicode="&#xe904;" glyph-name="emai" d="M841.953 402.489v-409.602l-151.689 113.78h-121.377v182.045h121.377l151.689 113.777zM887.467 925.867c12.070 0 23.648-4.795 32.181-13.33s13.326-20.111 13.326-32.181v-409.6h-91.020v262.281l-360.811-323.174-367.365 324.176v-536.351h364.089v-91.020h-409.6c-12.070 0-23.646 4.792-32.181 13.332-8.535 8.533-13.33 20.111-13.33 32.181v728.175c0 12.070 4.795 23.646 13.33 32.181s20.111 13.33 32.181 13.33h819.201zM887.467 288.711c23.62 0.105 46.353-8.974 63.399-25.321 17.053-16.348 27.081-38.683 27.962-62.283 0.887-23.607-7.434-46.626-23.211-64.205-15.776-17.585-37.765-28.344-61.324-30.010l-6.827-0.225v182.045zM819.2 834.845h-682.168l343.609-303.195 338.558 303.195z" />
<glyph unicode="&#xe905;" glyph-name="expand" d="M511.999 367.98l337.92 337.921 96.529-96.529-434.449-434.449-434.449 434.449 96.529 96.529 337.92-337.921z" />
<glyph unicode="&#xe906;" glyph-name="eye" d="M50.389 448c40.107 218.453 231.552 384 461.611 384 230.061 0 421.46-165.547 461.613-384-40.109-218.453-231.552-384-461.613-384-230.059 0-421.461 165.547-461.611 384zM511.999 234.667c56.579 0 110.842 22.476 150.849 62.484s62.483 94.269 62.483 150.849c0 56.579-22.477 110.842-62.483 150.849s-94.269 62.484-150.849 62.484c-56.58 0-110.842-22.476-150.849-62.484s-62.484-94.27-62.484-150.849c0-56.58 22.476-110.842 62.484-150.849s94.269-62.484 150.849-62.484zM511.999 320c-33.948 0-66.505 13.485-90.509 37.491s-37.491 56.562-37.491 90.509c0 33.948 13.485 66.505 37.491 90.509s56.562 37.491 90.509 37.491c33.948 0 66.505-13.485 90.509-37.491s37.491-56.562 37.491-90.509c0-33.948-13.485-66.505-37.491-90.509s-56.562-37.491-90.509-37.491z" />
<glyph unicode="&#xe907;" glyph-name="facebook" d="M564.515 566.16h236.308l-26.257-105.025h-210.051v-472.619h-105.026v472.619h-210.051v105.025h210.051v98.304c0 93.631 9.767 127.606 28.042 161.845 17.907 33.828 45.571 61.492 79.399 79.399 34.239 18.274 68.214 28.042 161.845 28.042 27.412 0 51.462-2.626 72.048-7.877v-97.149h-72.048c-69.527 0-90.689-4.096-112.272-15.648-15.964-8.507-27.832-20.375-36.339-36.339-11.552-21.583-15.648-42.745-15.648-112.272v-98.304z" />
<glyph unicode="&#xe908;" glyph-name="full-site" d="M248 472c-28.365 0-56.453 5.587-82.66 16.442s-50.018 26.765-70.076 46.822c-20.057 20.058-35.968 43.869-46.823 70.076s-16.442 54.294-16.442 82.66c0 28.365 5.587 56.453 16.442 82.66s26.766 50.018 46.823 70.076c20.058 20.057 43.869 35.967 70.076 46.822s54.294 16.442 82.66 16.442c57.287 0 112.227-22.757 152.735-63.265s63.265-95.448 63.265-152.735c0-57.287-22.757-112.227-63.265-152.735s-95.448-63.265-152.735-63.265zM272-8c-57.287 0-112.227 22.758-152.735 63.264-40.508 40.512-63.265 95.45-63.265 152.736s22.757 112.227 63.265 152.735c40.508 40.508 95.448 63.265 152.735 63.265s112.227-22.757 152.735-63.265c40.508-40.508 63.265-95.449 63.265-152.735s-22.757-112.224-63.265-152.736c-40.508-40.506-95.448-63.264-152.735-63.264zM752 472c-28.365 0-56.454 5.587-82.662 16.442-26.202 10.855-50.015 26.765-70.073 46.822s-35.967 43.869-46.822 70.076c-10.855 26.207-16.442 54.294-16.442 82.66s5.587 56.453 16.442 82.66c10.855 26.206 26.765 50.018 46.822 70.076s43.871 35.967 70.073 46.822c26.208 10.855 54.298 16.442 82.662 16.442 57.286 0 112.224-22.757 152.736-63.265 40.506-40.508 63.264-95.448 63.264-152.735s-22.758-112.227-63.264-152.735c-40.512-40.508-95.45-63.265-152.736-63.265zM752-8c-57.286 0-112.227 22.758-152.735 63.264-40.508 40.512-63.265 95.45-63.265 152.736s22.757 112.227 63.265 152.735c40.508 40.508 95.449 63.265 152.735 63.265s112.224-22.757 152.736-63.265c40.506-40.508 63.264-95.449 63.264-152.735s-22.758-112.224-63.264-152.736c-40.512-40.506-95.45-63.264-152.736-63.264zM248 568c31.826 0 62.348 12.643 84.853 35.147s35.147 53.027 35.147 84.853c0 31.826-12.643 62.348-35.147 84.853s-53.027 35.147-84.853 35.147c-31.826 0-62.348-12.643-84.853-35.147s-35.147-53.027-35.147-84.853c0-31.826 12.643-62.348 35.147-84.853s53.027-35.147 84.853-35.147zM272 88c31.826 0 62.348 12.64 84.853 35.149 22.504 22.502 35.147 53.024 35.147 84.851s-12.643 62.349-35.147 84.851c-22.505 22.509-53.027 35.149-84.853 35.149s-62.348-12.64-84.853-35.149c-22.504-22.502-35.147-53.024-35.147-84.851s12.643-62.349 35.147-84.851c22.505-22.509 53.027-35.149 84.853-35.149zM752 568c31.827 0 62.349 12.643 84.851 35.147 22.509 22.505 35.149 53.027 35.149 84.853s-12.64 62.348-35.149 84.853c-22.502 22.504-53.024 35.147-84.851 35.147s-62.349-12.643-84.851-35.147c-22.509-22.505-35.149-53.027-35.149-84.853s12.64-62.348 35.149-84.853c22.502-22.504 53.024-35.147 84.851-35.147zM752 88c31.827 0 62.349 12.64 84.851 35.149 22.509 22.502 35.149 53.024 35.149 84.851s-12.64 62.349-35.149 84.851c-22.502 22.509-53.024 35.149-84.851 35.149s-62.349-12.64-84.851-35.149c-22.509-22.502-35.149-53.024-35.149-84.851s12.64-62.349 35.149-84.851c22.502-22.509 53.024-35.149 84.851-35.149z" />
<glyph unicode="&#xe909;" glyph-name="instagram" d="M511.999 594.292c-38.797 0-76.006-15.412-103.439-42.846s-42.846-64.643-42.846-103.44c0-38.797 15.412-76.006 42.846-103.439s64.642-42.846 103.439-42.846c38.797 0 76.006 15.412 103.439 42.846s42.846 64.642 42.846 103.439c0 38.797-15.412 76.006-42.846 103.44s-64.642 42.846-103.439 42.846zM511.999 691.815c64.662 0 126.676-25.686 172.399-71.41s71.409-107.737 71.409-172.399c0-64.662-25.686-126.676-71.409-172.399s-107.737-71.414-172.399-71.414c-64.663 0-126.676 25.691-172.399 71.414s-71.41 107.737-71.41 172.399c0 64.663 25.687 126.676 71.41 172.399s107.737 71.41 172.399 71.41zM828.95 704.006c0-16.165-6.422-31.669-17.854-43.099-11.425-11.431-26.931-17.853-43.096-17.853s-31.671 6.422-43.102 17.853c-11.431 11.431-17.852 26.934-17.852 43.099s6.421 31.669 17.852 43.1c11.431 11.431 26.937 17.852 43.102 17.852s31.671-6.421 43.096-17.852c11.432-11.431 17.854-26.934 17.854-43.1zM511.999 838.101c-120.637 0-140.337-0.341-196.462-2.828-38.23-1.804-63.878-6.924-87.674-16.189-21.162-8.192-36.425-17.993-52.663-34.279-15.262-14.746-26.996-32.748-34.328-52.663-9.265-23.894-14.385-49.494-16.14-87.674-2.535-53.833-2.828-72.655-2.828-196.462 0-120.637 0.341-140.336 2.828-196.462 1.804-38.179 6.924-63.882 16.14-87.624 8.289-21.211 18.042-36.476 34.231-52.663 16.433-16.384 31.695-26.185 52.663-34.282 24.088-9.311 49.737-14.482 87.771-16.238 53.833-2.538 72.655-2.831 196.462-2.831 120.637 0 140.337 0.344 196.462 2.831 38.131 1.807 63.826 6.927 87.627 16.143 21.109 8.236 36.469 18.037 52.663 34.231 16.428 16.428 26.229 31.693 34.326 52.663 9.267 24.035 14.431 49.737 16.187 87.77 2.538 53.833 2.831 72.655 2.831 196.462 0 120.637-0.344 140.337-2.831 196.462-1.799 38.132-6.919 63.878-16.187 87.674-7.351 19.895-19.061 37.889-34.282 52.663-14.738 15.27-32.739 27.006-52.663 34.328-23.888 9.265-49.54 14.385-87.67 16.14-53.833 2.535-72.655 2.828-196.462 2.828zM511.999 935.625c132.486 0 149.016-0.488 200.997-2.926 51.933-2.438 87.283-10.581 118.39-22.674 32.183-12.385 59.297-29.16 86.411-56.223 24.795-24.376 43.981-53.862 56.218-86.406 12.047-31.062 20.239-66.463 22.674-118.394 2.297-51.98 2.926-68.511 2.926-200.997s-0.483-149.016-2.926-200.997c-2.436-51.93-10.628-87.287-22.674-118.395-12.2-32.563-31.393-62.054-56.218-86.404-24.386-24.788-53.87-43.973-86.411-56.225-31.056-12.047-66.458-20.239-118.39-22.674-51.98-2.289-68.511-2.926-200.997-2.926s-149.016 0.49-200.997 2.926c-51.931 2.436-87.284 10.628-118.394 22.674-32.557 12.215-62.048 31.408-86.406 56.225-24.8 24.371-43.987 53.855-56.223 86.404-12.093 31.064-20.236 66.465-22.674 118.395-2.292 51.98-2.926 68.511-2.926 200.997s0.488 149.016 2.926 200.997c2.438 51.98 10.581 87.284 22.674 118.394 12.202 32.564 31.393 62.058 56.223 86.406 24.365 24.809 53.854 43.997 86.406 56.223 31.111 12.093 66.414 20.236 118.394 22.674 51.98 2.292 68.511 2.926 200.997 2.926z" />
<glyph unicode="&#xe90a;" glyph-name="investors" d="M512 499.2c67.896 0 133.012-26.971 181.018-74.982 48.010-48.005 74.982-113.121 74.982-181.018v-307.2h-102.4v307.2c0 39.178-14.966 76.877-41.846 105.385-26.875 28.503-63.631 45.66-102.743 47.959l-9.011 0.256c-39.179 0-76.877-14.966-105.383-41.846-28.506-26.875-45.663-63.631-47.961-102.743l-0.256-9.011v-307.2h-102.4v307.2c0 67.896 26.971 133.012 74.981 181.018 48.009 48.011 113.124 74.982 181.019 74.982zM179.2 345.6c14.285 0 28.16-1.69 41.472-4.813-8.754-26.061-13.938-53.187-15.411-80.64l-0.461-16.947v-4.403c-5.885 2.104-12.007 3.482-18.227 4.096l-7.373 0.307c-19.091 0-37.498-7.112-51.631-19.948s-22.978-30.474-24.81-49.48l-0.358-7.373v-230.4h-102.4v230.4c0 47.529 18.88 93.107 52.487 126.715s79.186 52.485 126.713 52.485zM844.8 345.6c47.529 0 93.107-18.877 126.715-52.485s52.485-79.186 52.485-126.715v-230.4h-102.4v230.4c0 19.092-7.112 37.499-19.948 51.63s-30.474 22.979-49.48 24.812l-7.373 0.358c-8.96 0-17.562-1.536-25.6-4.352v4.352c0 34.099-5.53 66.867-15.821 97.485 13.261 3.226 27.136 4.915 41.421 4.915zM179.2 652.8c33.948 0 66.505-13.486 90.51-37.49s37.49-56.562 37.49-90.51c0-33.948-13.486-66.505-37.49-90.511-24.005-24.003-56.562-37.489-90.51-37.489s-66.505 13.486-90.51 37.489c-24.005 24.006-37.49 56.564-37.49 90.511s13.486 66.505 37.49 90.51c24.005 24.005 56.562 37.49 90.51 37.49zM844.8 652.8c33.946 0 66.504-13.486 90.511-37.49 24.003-24.005 37.489-56.562 37.489-90.51s-13.486-66.505-37.489-90.511c-24.008-24.003-56.566-37.489-90.511-37.489s-66.504 13.486-90.511 37.489c-24.003 24.006-37.489 56.564-37.489 90.511s13.486 66.505 37.489 90.51c24.008 24.005 56.566 37.49 90.511 37.49zM179.2 550.4c-6.79 0-13.301-2.697-18.102-7.498s-7.498-11.312-7.498-18.102c0-6.79 2.697-13.301 7.498-18.102s11.312-7.498 18.102-7.498c6.79 0 13.301 2.697 18.102 7.498s7.498 11.312 7.498 18.102c0 6.79-2.697 13.301-7.498 18.102s-11.312 7.498-18.102 7.498zM844.8 550.4c-6.789 0-13.302-2.697-18.104-7.498-4.797-4.801-7.496-11.312-7.496-18.102s2.698-13.301 7.496-18.102c4.803-4.801 11.315-7.498 18.104-7.498s13.302 2.697 18.104 7.498c4.797 4.801 7.496 11.312 7.496 18.102s-2.698 13.301-7.496 18.102c-4.803 4.801-11.315 7.498-18.104 7.498zM512 960c54.318 0 106.409-21.577 144.814-59.984 38.41-38.408 59.986-90.499 59.986-144.816s-21.576-106.408-59.986-144.816c-38.405-38.407-90.496-59.984-144.814-59.984s-106.408 21.577-144.816 59.984-59.984 90.499-59.984 144.816c0 54.317 21.577 106.408 59.984 144.816s90.499 59.984 144.816 59.984zM512 857.6c-27.158 0-53.204-10.788-72.408-29.992s-29.992-45.25-29.992-72.408c0-27.158 10.788-53.204 29.992-72.408s45.25-29.992 72.408-29.992c27.156 0 53.202 10.788 72.407 29.992s29.993 45.25 29.993 72.408c0 27.158-10.788 53.204-29.993 72.408s-45.251 29.992-72.407 29.992z" />
<glyph unicode="&#xe90b;" glyph-name="kapital" d="M0 38.4h1024v-102.4h-1024v102.4zM102.4 448h102.4v-358.4h-102.4v358.4zM358.4 448h102.4v-358.4h-102.4v358.4zM563.2 448h102.4v-358.4h-102.4v358.4zM819.2 448h102.4v-358.4h-102.4v358.4zM0 704l512 256 512-256v-204.8h-1024v204.8zM102.4 640.717v-39.117h819.2v39.117l-409.6 204.8-409.6-204.8zM512 652.8c-13.579 0-26.602 5.394-36.204 14.996s-14.996 22.625-14.996 36.204c0 13.579 5.394 26.602 14.996 36.204s22.625 14.996 36.204 14.996c13.578 0 26.604-5.394 36.204-14.996s14.996-22.625 14.996-36.204c0-13.579-5.396-26.602-14.996-36.204s-22.625-14.996-36.204-14.996z" />
<glyph unicode="&#xe90c;" glyph-name="next" d="M592.007 448.001l-337.92 337.92 96.529 96.529 434.449-434.449-434.449-434.449-96.529 96.529 337.92 337.92z" />
<glyph unicode="&#xe90d;" glyph-name="phone" d="M219.428 935.625h585.143c12.932 0 25.335-5.137 34.48-14.282s14.282-21.547 14.282-34.48v-877.713c0-12.932-5.138-25.337-14.282-34.48s-21.547-14.285-34.48-14.285h-585.143c-12.932 0-25.335 5.142-34.48 14.285s-14.282 21.548-14.282 34.48v877.713c0 12.932 5.137 25.335 14.282 34.48s21.547 14.282 34.48 14.282zM512 204.193c-12.933 0-25.336-5.135-34.48-14.277s-14.282-21.548-14.282-34.48c0-12.932 5.138-25.337 14.282-34.48s21.547-14.285 34.48-14.285c12.932 0 25.334 5.142 34.48 14.285s14.282 21.548 14.282 34.48c0 12.932-5.138 25.337-14.282 34.48s-21.547 14.277-34.48 14.277z" />
<glyph unicode="&#xe90e;" glyph-name="results" d="M130.51 899.765v-803.135h803.137v-100.394h-903.529v903.529h100.392zM898.156 734.469l70.981-70.977-286.473-286.469-150.586 150.538-215.492-215.439-70.977 70.975 286.469 286.469 150.586-150.538 215.492 215.441z" />
<glyph unicode="&#xe90f;" glyph-name="search" d="M797.912 229.114l203.048-202.997-67.083-67.083-202.997 203.048c-75.531-60.553-169.481-93.486-266.287-93.343-235.52 0-426.667 191.147-426.667 426.664 0 235.52 191.147 426.667 426.667 426.667 235.522 0 426.668-191.147 426.668-426.667 0.137-96.806-32.796-190.757-93.349-266.288zM702.817 264.294c60.166 61.867 93.764 144.807 93.628 231.108 0 183.372-148.526 331.852-331.852 331.852-183.372 0-331.852-148.48-331.852-331.852 0-183.322 148.48-331.853 331.852-331.853 86.302-0.137 169.24 33.468 231.113 93.633l7.111 7.111z" />
<glyph unicode="&#xe910;" glyph-name="sitemap" d="M32 784l336 144 288-144 302.541 129.648c3.654 1.566 7.642 2.2 11.597 1.846s7.763-1.685 11.085-3.874c3.315-2.189 6.035-5.167 7.917-8.666s2.867-7.412 2.861-11.386v-779.568l-336-144-288 144-302.544-129.651c-3.652-1.562-7.636-2.195-11.594-1.843s-7.766 1.683-11.082 3.872c-3.316 2.189-6.038 5.171-7.919 8.666-1.882 3.501-2.865 7.418-2.861 11.392v779.565zM704 93.037l192 82.278v607.101l-192-82.272v-607.107zM608 99.328v601.344l-192 96v-601.344l192-96zM320 195.853v607.107l-192-82.272v-607.101l192 82.266z" />
<glyph unicode="&#xe911;" glyph-name="telegram" d="M511.999 57.907c103.46 0 202.682 41.106 275.838 114.256 73.157 73.16 114.256 172.382 114.256 275.842s-41.099 202.682-114.256 275.839c-73.156 73.157-172.378 114.256-275.838 114.256s-202.682-41.099-275.839-114.256c-73.157-73.157-114.256-172.379-114.256-275.839s41.099-202.682 114.256-275.842c73.157-73.15 172.379-114.256 275.839-114.256zM511.999-39.614c-269.312 0-487.619 218.309-487.619 487.62s218.307 487.619 487.619 487.619c269.313 0 487.616-218.307 487.616-487.619s-218.302-487.62-487.616-487.62zM360.349 390.954l-121.808 37.985c-26.331 8.046-26.478 26.185 5.9 39.205l474.6 183.345c27.549 11.215 43.151-2.975 34.227-38.522l-80.795-381.318c-5.656-27.164-21.992-33.644-44.666-21.115l-124.391 92.063-57.978-55.978c-5.949-5.754-10.776-10.679-19.944-11.898-9.118-1.268-16.628 1.463-22.137 16.579l-42.423 139.995-0.585-0.391v0.049z" />
<glyph unicode="&#xe912;" glyph-name="telephone" d="M367.506 520.302c51.474-90.431 126.365-165.321 216.795-216.795l48.494 67.913c7.798 10.92 19.329 18.603 32.41 21.595s26.805 1.086 38.576-5.358c77.583-42.4 163.269-67.901 251.407-74.825 13.758-1.090 26.602-7.325 35.964-17.462s14.563-23.431 14.563-37.23v-244.776c0-13.575-5.032-26.683-14.131-36.762-9.099-10.086-21.621-16.435-35.131-17.818-29.074-3.013-58.368-4.498-87.881-4.498-469.577 0-850.286 380.709-850.286 850.286 0 29.513 1.481 58.807 4.498 87.881 1.385 13.511 7.734 26.029 17.817 35.129s23.184 14.136 36.766 14.133h244.773c13.8 0.002 27.094-5.198 37.23-14.562s16.372-22.205 17.462-35.962c6.924-88.144 32.425-173.825 74.825-251.41 6.444-11.77 8.35-25.495 5.358-38.576s-10.675-24.611-21.595-32.41l-67.913-48.494zM229.157 556.343l104.229 74.441c-29.58 63.849-49.846 131.611-60.178 201.216h-144.658c-0.329-9.106-0.494-18.267-0.494-27.429-0.055-409.015 331.502-740.571 740.517-740.571 9.157 0 18.322 0.161 27.429 0.549v144.655c-69.603 10.335-137.37 30.602-201.216 60.182l-74.441-104.229c-29.97 11.644-59.081 25.395-87.113 41.143l-3.182 1.814c-107.598 61.232-196.702 150.336-257.938 257.935l-1.81 3.182c-15.749 28.032-29.498 57.143-41.143 87.113z" />
<glyph unicode="&#xe913;" glyph-name="time" d="M512-49.775c-274.923 0-497.778 222.853-497.778 497.776s222.855 497.778 497.778 497.778c274.923 0 497.775-222.855 497.775-497.778s-222.852-497.776-497.775-497.776zM512 49.775c105.615 0 206.904 41.958 281.585 116.64s116.64 175.97 116.64 281.585c0 105.615-41.958 206.904-116.64 281.585s-175.97 116.637-281.585 116.637c-105.615 0-206.904-41.956-281.585-116.637s-116.637-175.97-116.637-281.585c0-105.615 41.956-206.904 116.637-281.585s175.97-116.64 281.585-116.64zM561.777 448.001h199.112v-99.556h-298.667v348.445h99.555v-248.889z" />
</font>
</defs>
</svg>
